<svg xmlns="http://www.w3.org/2000/svg" xmlns:xlink="http://www.w3.org/1999/xlink" width="963" zoomAndPan="magnify" viewBox="0 0 722.25 191.249993" height="255" preserveAspectRatio="xMidYMid meet" version="1.0"><defs><g/><clipPath id="53481ea222"><path d="M 16.75 4.898438 L 202.023438 4.898438 L 202.023438 185.6875 L 16.75 185.6875 Z M 16.75 4.898438 " clip-rule="nonzero"/></clipPath><clipPath id="aedda95dec"><path d="M 649 71.242188 L 704.621094 71.242188 L 704.621094 142 L 649 142 Z M 649 71.242188 " clip-rule="nonzero"/></clipPath><clipPath id="bf4fba24ae"><path d="M 634 71.242188 L 678 71.242188 L 678 142 L 634 142 Z M 634 71.242188 " clip-rule="nonzero"/></clipPath><clipPath id="e6a143b299"><path d="M 590.445312 71.242188 L 645 71.242188 L 645 142.214844 L 590.445312 142.214844 Z M 590.445312 71.242188 " clip-rule="nonzero"/></clipPath></defs><g clip-path="url(#53481ea222)"><path fill="#737373" d="M 124.554688 24.882812 L 53.765625 24.882812 C 48.625 24.882812 45.546875 29.089844 46.921875 34.234375 L 56.507812 70.011719 C 57.886719 75.152344 63.21875 79.359375 68.363281 79.359375 L 139.148438 79.359375 C 144.292969 79.359375 147.375 75.152344 145.996094 70.011719 L 136.40625 34.234375 C 135.035156 29.089844 129.703125 24.882812 124.554688 24.882812 M 74.433594 121.984375 L 138.039062 185.59375 L 202.046875 185.59375 L 138.4375 121.984375 Z M 133.078125 104.410156 L 150.398438 86.226562 C 155.738281 82.007812 158.296875 74.777344 156.285156 67.253906 L 146.699219 31.476562 C 144.105469 21.796875 134.640625 14.238281 124.558594 14.238281 L 101.257812 14.238281 C 99.363281 8.800781 94.191406 4.898438 88.109375 4.898438 C 82.027344 4.898438 76.855469 8.800781 74.960938 14.238281 L 53.765625 14.238281 C 48.027344 14.238281 43.214844 16.648438 40.050781 20.410156 L 40.347656 20.066406 L 23.1875 37.996094 C 19.144531 41.363281 16.765625 46.515625 16.9375 52.179688 L 16.9375 185.59375 L 62.191406 185.59375 L 62.191406 109.742188 L 125.453125 109 C 128.457031 108.128906 131.050781 106.523438 133.078125 104.410156 Z M 133.078125 104.410156 " fill-opacity="1" fill-rule="evenodd"/></g><path fill="#a6a6a6" d="M 80.609375 37.140625 C 86.394531 37.140625 91.09375 41.832031 91.09375 47.625 C 91.09375 53.414062 86.402344 58.109375 80.609375 58.109375 C 74.816406 58.109375 70.121094 53.417969 70.121094 47.625 C 70.121094 41.832031 74.816406 37.140625 80.609375 37.140625 M 116.640625 38.636719 C 111.679688 38.636719 107.652344 42.65625 107.652344 47.625 C 107.652344 52.585938 111.671875 56.613281 116.640625 56.613281 C 121.601562 56.613281 125.628906 52.589844 125.628906 47.625 C 125.628906 42.664062 121.605469 38.636719 116.640625 38.636719 " fill-opacity="1" fill-rule="evenodd"/><g fill="#d9d9d9" fill-opacity="1"><g transform="translate(165.73557, 140.412547)"><g><path d="M 56.015625 -69.109375 L 86.390625 -69.109375 L 60.859375 -41.234375 L 87.046875 0 L 57.46875 0 L 42.9375 -23.6875 L 33.90625 -14.921875 L 33.90625 0 L 7.859375 0 L 7.859375 -95.03125 L 33.90625 -95.03125 L 33.90625 -42.671875 Z M 56.015625 -69.109375 "/></g></g></g><g fill="#d9d9d9" fill-opacity="1"><g transform="translate(245.569342, 140.412547)"><g><path d="M 43.59375 -70.6875 C 55.71875 -70.6875 65.25 -67.609375 72.1875 -61.453125 C 79.125 -55.296875 82.59375 -46.332031 82.59375 -34.5625 C 82.59375 -22.78125 79.125 -13.8125 72.1875 -7.65625 C 65.25 -1.5 55.71875 1.578125 43.59375 1.578125 C 31.457031 1.578125 21.941406 -1.472656 15.046875 -7.578125 C 8.160156 -13.691406 4.71875 -22.6875 4.71875 -34.5625 C 4.71875 -46.425781 8.160156 -55.410156 15.046875 -61.515625 C 21.941406 -67.628906 31.457031 -70.6875 43.59375 -70.6875 Z M 43.59375 -53.015625 C 35.039062 -53.015625 30.765625 -48.082031 30.765625 -38.21875 L 30.765625 -30.765625 C 30.765625 -20.984375 35.039062 -16.09375 43.59375 -16.09375 C 52.226562 -16.09375 56.546875 -20.984375 56.546875 -30.765625 L 56.546875 -38.21875 C 56.546875 -48.082031 52.226562 -53.015625 43.59375 -53.015625 Z M 43.59375 -53.015625 "/></g></g></g><g fill="#d9d9d9" fill-opacity="1"><g transform="translate(325.403114, 140.412547)"><g><path d="M 39.53125 -17.671875 L 70.03125 -17.671875 L 70.03125 0 L 2.625 0 L 2.625 -8.515625 L 31.671875 -51.4375 L 4.1875 -51.4375 L 4.1875 -69.109375 L 68.84375 -69.109375 L 68.84375 -61 Z M 39.53125 -17.671875 "/></g></g></g><g fill="#d9d9d9" fill-opacity="1"><g transform="translate(390.709514, 140.412547)"><g><path d="M 99.609375 -70.6875 C 107.460938 -70.6875 113.351562 -68.4375 117.28125 -63.9375 C 121.207031 -59.445312 123.171875 -53.054688 123.171875 -44.765625 L 123.171875 0 L 97.125 0 L 97.125 -41.625 C 97.125 -44.59375 96.398438 -46.96875 94.953125 -48.75 C 93.515625 -50.539062 91.488281 -51.4375 88.875 -51.4375 C 85.820312 -51.4375 83.332031 -50.390625 81.40625 -48.296875 C 79.488281 -46.203125 78.53125 -43.628906 78.53125 -40.578125 L 78.53125 0 L 52.484375 0 L 52.484375 -41.625 C 52.484375 -44.59375 51.765625 -46.96875 50.328125 -48.75 C 48.890625 -50.539062 46.859375 -51.4375 44.234375 -51.4375 C 41.179688 -51.4375 38.695312 -50.390625 36.78125 -48.296875 C 34.863281 -46.203125 33.90625 -43.628906 33.90625 -40.578125 L 33.90625 0 L 7.859375 0 L 7.859375 -69.109375 L 29.1875 -69.109375 L 30.890625 -58.765625 C 33.503906 -62.429688 36.972656 -65.332031 41.296875 -67.46875 C 45.617188 -69.613281 50.175781 -70.6875 54.96875 -70.6875 C 65.351562 -70.6875 72.335938 -66.710938 75.921875 -58.765625 C 78.617188 -62.429688 82.082031 -65.332031 86.3125 -67.46875 C 90.550781 -69.613281 94.984375 -70.6875 99.609375 -70.6875 Z M 99.609375 -70.6875 "/></g></g></g><g fill="#d9d9d9" fill-opacity="1"><g transform="translate(514.125365, 140.412547)"><g><path d="M 43.59375 -70.6875 C 55.71875 -70.6875 65.25 -67.609375 72.1875 -61.453125 C 79.125 -55.296875 82.59375 -46.332031 82.59375 -34.5625 C 82.59375 -22.78125 79.125 -13.8125 72.1875 -7.65625 C 65.25 -1.5 55.71875 1.578125 43.59375 1.578125 C 31.457031 1.578125 21.941406 -1.472656 15.046875 -7.578125 C 8.160156 -13.691406 4.71875 -22.6875 4.71875 -34.5625 C 4.71875 -46.425781 8.160156 -55.410156 15.046875 -61.515625 C 21.941406 -67.628906 31.457031 -70.6875 43.59375 -70.6875 Z M 43.59375 -53.015625 C 35.039062 -53.015625 30.765625 -48.082031 30.765625 -38.21875 L 30.765625 -30.765625 C 30.765625 -20.984375 35.039062 -16.09375 43.59375 -16.09375 C 52.226562 -16.09375 56.546875 -20.984375 56.546875 -30.765625 L 56.546875 -38.21875 C 56.546875 -48.082031 52.226562 -53.015625 43.59375 -53.015625 Z M 43.59375 -53.015625 "/></g></g></g><g clip-path="url(#aedda95dec)"><path fill="#737373" d="M 669.453125 71.378906 L 694.40625 121.019531 L 704.75 141.589844 L 684.761719 141.589844 L 649.464844 71.378906 L 669.453125 71.378906 " fill-opacity="1" fill-rule="nonzero"/></g><g clip-path="url(#bf4fba24ae)"><path fill="#737373" d="M 677.105469 141.15625 L 657.535156 141.351562 L 634.769531 91.9375 L 644.90625 71.261719 L 677.105469 141.15625 " fill-opacity="1" fill-rule="nonzero"/></g><g clip-path="url(#e6a143b299)"><path fill="#a6a6a6" d="M 624.921875 71.460938 L 644.90625 71.261719 L 634.769531 91.9375 L 610.308594 141.820312 L 590.320312 142.019531 L 624.921875 71.460938 " fill-opacity="1" fill-rule="nonzero"/></g></svg>